<?xml version="1.0" encoding="UTF-8" standalone="no"?>
<!DOCTYPE svg PUBLIC "-//W3C//DTD SVG 1.1//EN"
 "http://www.w3.org/Graphics/SVG/1.1/DTD/svg11.dtd">
<!-- Generated by graphviz version 2.44.1 (20200629.0846)
 -->
<!-- Title: PROV Pages: 1 -->
<svg width="414pt" height="201pt"
 viewBox="0.00 0.00 414.00 201.00" xmlns="http://www.w3.org/2000/svg" xmlns:xlink="http://www.w3.org/1999/xlink">
<g id="graph0" class="graph" transform="scale(1 1) rotate(0) translate(4 197)">
<title>PROV</title>
<polygon fill="white" stroke="transparent" points="-4,4 -4,-197 410,-197 410,4 -4,4"/>
<!-- http://example.com/composing -->
<g id="node1" class="node">
<title>http://example.com/composing</title>
<g id="a_node1"><a xlink:href="http://example.com/composing" xlink:title="composing">
<polygon fill="#9fb1fc" stroke="#0000ff" points="182,-114.5 103,-114.5 103,-78.5 182,-78.5 182,-114.5"/>
<text text-anchor="middle" x="142.5" y="-92.8" font-family="Times New Roman,serif" font-size="14.00">composing</text>
</a>
</g>
</g>
<!-- http://example.com/regionList -->
<g id="node3" class="node">
<title>http://example.com/regionList</title>
<g id="a_node3"><a xlink:href="http://example.com/regionList" xlink:title="regionList">
<ellipse fill="#fffc87" stroke="#808080" cx="142.5" cy="-175" rx="46.59" ry="18"/>
<text text-anchor="middle" x="142.5" y="-171.3" font-family="Times New Roman,serif" font-size="14.00">regionList</text>
</a>
</g>
</g>
<!-- http://example.com/composing&#45;&gt;http://example.com/regionList -->
<g id="edge5" class="edge">
<title>http://example.com/composing&#45;&gt;http://example.com/regionList</title>
<path fill="none" stroke="black" d="M142.5,-114.86C142.5,-124.31 142.5,-136.23 142.5,-146.88"/>
<polygon fill="black" stroke="black" points="139,-146.97 142.5,-156.97 146,-146.97 139,-146.97"/>
<text text-anchor="middle" x="155.49" y="-120.46" font-family="Times New Roman,serif" font-size="8.00">use</text>
</g>
<!-- http://example.com/dataset -->
<g id="node4" class="node">
<title>http://example.com/dataset</title>
<g id="a_node4"><a xlink:href="http://example.com/dataset" xlink:title="dataset">
<ellipse fill="#fffc87" stroke="#808080" cx="41.5" cy="-175" rx="36.29" ry="18"/>
<text text-anchor="middle" x="41.5" y="-171.3" font-family="Times New Roman,serif" font-size="14.00">dataset</text>
</a>
</g>
</g>
<!-- http://example.com/composing&#45;&gt;http://example.com/dataset -->
<g id="edge4" class="edge">
<title>http://example.com/composing&#45;&gt;http://example.com/dataset</title>
<path fill="none" stroke="black" d="M119.83,-114.67C104.82,-126.04 85.03,-141.03 69.09,-153.1"/>
<polygon fill="black" stroke="black" points="66.55,-150.63 60.7,-159.46 70.78,-156.21 66.55,-150.63"/>
<text text-anchor="middle" x="121.7" y="-127.65" font-family="Times New Roman,serif" font-size="8.00">use</text>
</g>
<!-- http://example.com/derek -->
<g id="node7" class="node">
<title>http://example.com/derek</title>
<g id="a_node7"><a xlink:href="http://example.com/derek" xlink:title="derek">
<polygon fill="#fdb266" stroke="black" points="283.02,-180.56 245.5,-193 207.98,-180.56 208.02,-160.44 282.98,-160.44 283.02,-180.56"/>
<text text-anchor="middle" x="245.5" y="-171.3" font-family="Times New Roman,serif" font-size="14.00">derek</text>
</a>
</g>
</g>
<!-- http://example.com/composing&#45;&gt;http://example.com/derek -->
<g id="edge7" class="edge">
<title>http://example.com/composing&#45;&gt;http://example.com/derek</title>
<path fill="none" stroke="black" d="M165.62,-114.67C181.37,-126.37 202.29,-141.91 218.77,-154.14"/>
<polygon fill="black" stroke="black" points="216.81,-157.05 226.93,-160.2 220.98,-151.43 216.81,-157.05"/>
<text text-anchor="middle" x="179.38" y="-106.81" font-family="Times New Roman,serif" font-size="8.00">assoc</text>
</g>
<!-- &#45;attrs0 -->
<g id="node2" class="node">
<title>&#45;attrs0</title>
<polygon fill="none" stroke="gray" points="149,-36 0,-36 0,0 155,0 155,-30 149,-36"/>
<polyline fill="none" stroke="gray" points="149,-36 149,-30 "/>
<polyline fill="none" stroke="gray" points="155,-30 149,-30 "/>
<text text-anchor="start" x="10.5" y="-22" font-family="Times New Roman,serif" font-size="10.00">type:</text>
<text text-anchor="start" x="34.5" y="-22" font-family="Times New Roman,serif" font-size="10.00">ex:Composing</text>
<text text-anchor="start" x="10.5" y="-9" font-family="Times New Roman,serif" font-size="10.00">label:</text>
<text text-anchor="start" x="34.5" y="-9" font-family="Times New Roman,serif" font-size="10.00">Composing region and data</text>
</g>
<!-- &#45;attrs0&#45;&gt;http://example.com/composing -->
<g id="edge1" class="edge">
<title>&#45;attrs0&#45;&gt;http://example.com/composing</title>
<path fill="none" stroke="gray" stroke-dasharray="5,2" d="M92.25,-36.36C102.96,-48.97 117.39,-65.94 128.03,-78.47"/>
</g>
<!-- &#45;attrs1 -->
<g id="node5" class="node">
<title>&#45;attrs1</title>
<polygon fill="none" stroke="gray" points="76,-114.5 1,-114.5 1,-78.5 82,-78.5 82,-108.5 76,-114.5"/>
<polyline fill="none" stroke="gray" points="76,-114.5 76,-108.5 "/>
<polyline fill="none" stroke="gray" points="82,-108.5 76,-108.5 "/>
<text text-anchor="start" x="11.5" y="-93.5" font-family="Times New Roman,serif" font-size="10.00">type:</text>
<text text-anchor="start" x="34.5" y="-93.5" font-family="Times New Roman,serif" font-size="10.00">s:Dataset</text>
</g>
<!-- &#45;attrs1&#45;&gt;http://example.com/dataset -->
<g id="edge2" class="edge">
<title>&#45;attrs1&#45;&gt;http://example.com/dataset</title>
<path fill="none" stroke="gray" stroke-dasharray="5,2" d="M41.5,-114.86C41.5,-127.47 41.5,-144.44 41.5,-156.97"/>
</g>
<!-- http://example.com/composition -->
<g id="node6" class="node">
<title>http://example.com/composition</title>
<g id="a_node6"><a xlink:href="http://example.com/composition" xlink:title="composition">
<ellipse fill="#fffc87" stroke="#808080" cx="228.5" cy="-18" rx="55.79" ry="18"/>
<text text-anchor="middle" x="228.5" y="-14.3" font-family="Times New Roman,serif" font-size="14.00">composition</text>
</a>
</g>
</g>
<!-- http://example.com/composition&#45;&gt;http://example.com/composing -->
<g id="edge6" class="edge">
<title>http://example.com/composition&#45;&gt;http://example.com/composing</title>
<path fill="none" stroke="black" d="M210.26,-35.22C198.39,-45.78 182.7,-59.74 169.41,-71.56"/>
<polygon fill="black" stroke="black" points="167.05,-68.98 161.91,-78.24 171.71,-74.21 167.05,-68.98"/>
<text text-anchor="middle" x="213.29" y="-48.01" font-family="Times New Roman,serif" font-size="8.00">gen</text>
</g>
<!-- http://example.com/composition&#45;&gt;http://example.com/derek -->
<g id="edge8" class="edge">
<title>http://example.com/composition&#45;&gt;http://example.com/derek</title>
<path fill="none" stroke="black" d="M230.38,-36.18C233.43,-63.96 239.45,-118.8 242.9,-150.28"/>
<polygon fill="black" stroke="black" points="239.43,-150.8 244,-160.36 246.39,-150.04 239.43,-150.8"/>
<text text-anchor="middle" x="244.11" y="-40.32" font-family="Times New Roman,serif" font-size="8.00">att</text>
</g>
<!-- &#45;attrs2 -->
<g id="node8" class="node">
<title>&#45;attrs2</title>
<polygon fill="none" stroke="gray" points="400,-121 257,-121 257,-72 406,-72 406,-115 400,-121"/>
<polyline fill="none" stroke="gray" points="400,-121 400,-115 "/>
<polyline fill="none" stroke="gray" points="406,-115 400,-115 "/>
<text text-anchor="start" x="267.5" y="-106.5" font-family="Times New Roman,serif" font-size="10.00">type:</text>
<text text-anchor="start" x="317.5" y="-106.5" font-family="Times New Roman,serif" font-size="10.00">prov:Person</text>
<text text-anchor="start" x="267.5" y="-93.5" font-family="Times New Roman,serif" font-size="10.00">givenName:</text>
<text text-anchor="start" x="317.5" y="-93.5" font-family="Times New Roman,serif" font-size="10.00">Derek</text>
<text text-anchor="start" x="267.5" y="-80.5" font-family="Times New Roman,serif" font-size="10.00">email:</text>
<text text-anchor="start" x="317.5" y="-80.5" font-family="Times New Roman,serif" font-size="10.00">derek@example.org</text>
</g>
<!-- &#45;attrs2&#45;&gt;http://example.com/derek -->
<g id="edge3" class="edge">
<title>&#45;attrs2&#45;&gt;http://example.com/derek</title>
<path fill="none" stroke="gray" stroke-dasharray="5,2" d="M304.76,-121.29C290.36,-134.09 273.11,-149.44 260.95,-160.26"/>
</g>
</g>
</svg>
